<?xml version="1.0" encoding="UTF-8"?>
<svg xmlns="http://www.w3.org/2000/svg" xmlns:xlink="http://www.w3.org/1999/xlink" width="502.44pt" height="109.94pt" viewBox="0 0 502.44 109.94" version="1.1">
<g id="surface1">
<path style=" stroke:none;fill-rule:nonzero;fill:rgb(0%,0%,0%);fill-opacity:1;" d="M 499.234375 36.851563 C 499.132813 33.589844 498.699219 30.53125 497.9375 27.679688 C 497.175781 24.824219 496.105469 22.171875 494.734375 19.726563 C 493.359375 17.28125 491.703125 15.0625 489.773438 13.074219 C 487.839844 11.089844 485.703125 9.328125 483.363281 7.800781 C 481.023438 6.269531 478.507813 4.949219 475.8125 3.824219 C 473.117188 2.703125 470.320313 1.835938 467.421875 1.226563 C 464.519531 0.613281 461.519531 0.230469 458.417969 0.078125 C 455.3125 -0.0742188 452.210938 0.00390625 449.109375 0.308594 C 446.003906 0.613281 442.929688 1.148438 439.878906 1.914063 C 436.828125 2.679688 433.851563 3.699219 430.953125 4.972656 C 428.054688 6.246094 425.28125 7.777344 422.636719 9.558594 C 419.988281 11.34375 417.5 13.355469 415.160156 15.597656 C 412.816406 17.84375 410.710938 20.3125 408.828125 23.015625 C 406.945313 25.714844 405.367188 28.699219 404.097656 31.960938 C 402.824219 35.222656 401.808594 38.738281 401.046875 42.507813 C 400.28125 46.28125 399.902344 50.308594 399.902344 54.589844 C 399.902344 58.972656 400.308594 63.128906 401.121094 67.050781 C 401.9375 70.976563 403.027344 74.597656 404.402344 77.90625 C 405.773438 81.222656 407.425781 84.277344 409.359375 87.082031 C 411.292969 89.886719 413.480469 92.433594 415.921875 94.726563 C 418.363281 97.019531 420.957031 99.035156 423.703125 100.765625 C 426.449219 102.5 429.324219 103.976563 432.324219 105.199219 C 435.324219 106.421875 438.429688 107.394531 441.632813 108.105469 C 444.839844 108.820313 448.042969 109.277344 451.246094 109.480469 C 454.449219 109.6875 457.628906 109.6875 460.78125 109.480469 C 463.933594 109.277344 467.011719 108.792969 470.015625 108.027344 C 473.011719 107.265625 475.886719 106.296875 478.636719 105.125 C 481.382813 103.953125 483.976563 102.523438 486.417969 100.84375 C 488.859375 99.160156 491.046875 97.25 492.976563 95.109375 C 494.910156 92.96875 496.589844 90.597656 498.011719 88 C 499.4375 85.398438 500.53125 82.597656 501.296875 79.589844 C 502.058594 76.582031 502.4375 73.394531 502.4375 70.03125 L 480.160156 69.878906 C 479.753906 72.226563 478.761719 74.289063 477.183594 76.070313 C 475.605469 77.855469 473.726563 79.308594 471.539063 80.429688 C 469.351563 81.554688 466.910156 82.339844 464.214844 82.800781 C 461.519531 83.257813 458.824219 83.285156 456.128906 82.875 C 453.433594 82.46875 450.789063 81.601563 448.195313 80.277344 C 445.601563 78.953125 443.3125 77.117188 441.328125 74.773438 C 439.34375 72.429688 437.742188 69.523438 436.519531 66.058594 C 435.300781 62.59375 434.691406 58.464844 434.691406 53.671875 C 434.691406 48.882813 435.25 44.726563 436.367188 41.210938 C 437.488281 37.691406 438.964844 34.6875 440.792969 32.1875 C 442.625 29.691406 444.734375 27.730469 447.128906 26.300781 C 449.515625 24.875 451.984375 23.90625 454.527344 23.394531 C 457.066406 22.886719 459.613281 22.835938 462.15625 23.242188 C 464.695313 23.652344 467.0625 24.441406 469.253906 25.613281 C 471.4375 26.789063 473.316406 28.316406 474.898438 30.199219 C 476.472656 32.089844 477.566406 34.304688 478.175781 36.851563 Z M 361.003906 42.507813 L 335.0625 42.507813 C 335.671875 38.839844 336.714844 35.757813 338.191406 33.257813 C 339.664063 30.761719 341.445313 28.75 343.53125 27.21875 C 345.613281 25.691406 347.855469 24.597656 350.246094 23.933594 C 352.632813 23.269531 355.050781 22.988281 357.492188 23.089844 C 359.933594 23.191406 362.273438 23.625 364.511719 24.390625 C 366.75 25.15625 368.757813 26.175781 370.539063 27.449219 C 372.316406 28.722656 373.742188 30.199219 374.8125 31.882813 C 375.878906 33.5625 376.414063 35.375 376.414063 37.308594 L 397.46875 37.308594 C 397.367188 33.945313 396.9375 30.839844 396.171875 27.984375 C 395.410156 25.132813 394.316406 22.480469 392.894531 20.03125 C 391.46875 17.585938 389.765625 15.367188 387.78125 13.382813 C 385.796875 11.394531 383.609375 9.636719 381.21875 8.105469 C 378.828125 6.578125 376.285156 5.277344 373.589844 4.207031 C 370.894531 3.136719 368.046875 2.273438 365.046875 1.609375 C 362.046875 0.945313 358.992188 0.539063 355.890625 0.386719 C 352.785156 0.230469 349.632813 0.308594 346.429688 0.613281 C 343.226563 0.921875 340.070313 1.480469 336.96875 2.296875 C 333.867188 3.113281 330.839844 4.132813 327.890625 5.355469 C 324.941406 6.578125 322.09375 8.082031 319.347656 9.863281 C 316.601563 11.648438 314.054688 13.664063 311.71875 15.902344 C 309.375 18.148438 307.238281 20.644531 305.308594 23.394531 C 303.375 26.148438 301.746094 29.128906 300.425781 32.339844 C 299.101563 35.550781 298.0625 39.046875 297.296875 42.816406 C 296.535156 46.585938 296.207031 50.613281 296.304688 54.894531 C 296.304688 59.382813 296.6875 63.558594 297.449219 67.433594 C 298.214844 71.308594 299.28125 74.902344 300.65625 78.210938 C 302.027344 81.527344 303.707031 84.585938 305.691406 87.386719 C 307.671875 90.191406 309.859375 92.738281 312.253906 95.03125 C 314.640625 97.324219 317.210938 99.339844 319.957031 101.070313 C 322.703125 102.804688 325.601563 104.28125 328.652344 105.507813 C 331.707031 106.730469 334.808594 107.699219 337.960938 108.414063 C 341.113281 109.125 344.296875 109.585938 347.5 109.789063 C 350.703125 109.992188 353.878906 109.992188 357.035156 109.789063 C 360.1875 109.585938 363.265625 109.125 366.265625 108.414063 C 369.265625 107.699219 372.164063 106.730469 374.964844 105.507813 C 377.761719 104.28125 380.355469 102.832031 382.746094 101.148438 C 385.132813 99.464844 387.324219 97.554688 389.308594 95.414063 C 391.289063 93.273438 392.96875 90.929688 394.34375 88.382813 C 395.714844 85.835938 396.785156 83.054688 397.546875 80.046875 C 398.308594 77.042969 398.691406 73.804688 398.691406 70.339844 L 376.414063 70.339844 C 375.902344 72.988281 374.964844 75.359375 373.589844 77.449219 C 372.21875 79.539063 370.589844 81.269531 368.707031 82.648438 C 366.824219 84.023438 364.742188 85.042969 362.453125 85.707031 C 360.164063 86.371094 357.847656 86.675781 355.507813 86.625 C 353.167969 86.574219 350.828125 86.140625 348.488281 85.324219 C 346.148438 84.507813 344.011719 83.234375 342.082031 81.5 C 340.148438 79.769531 338.46875 77.601563 337.046875 75 C 335.621094 72.402344 334.605469 69.371094 333.996094 65.902344 L 360.851563 65.902344 Z M 199.804688 15.292969 C 199.347656 19.878906 198.941406 24.3125 198.585938 28.59375 C 198.226563 32.875 198.003906 37.058594 197.898438 41.132813 C 197.800781 45.210938 197.746094 49.289063 197.746094 53.367188 C 197.746094 57.445313 197.800781 61.574219 197.898438 65.75 C 198.003906 69.933594 198.226563 74.3125 198.585938 78.902344 C 198.941406 83.488281 199.347656 88.332031 199.804688 93.425781 C 200.265625 98.523438 200.847656 103.976563 201.5625 109.789063 L 231.773438 109.789063 C 231.363281 105.8125 231.035156 102.015625 230.78125 98.394531 C 230.527344 94.777344 230.375 91.210938 230.324219 87.691406 C 230.269531 84.175781 230.375 80.609375 230.628906 76.988281 C 230.882813 73.375 231.214844 69.625 231.621094 65.75 L 260.304688 65.75 C 261.015625 69.523438 261.503906 73.21875 261.757813 76.835938 C 262.007813 80.457031 262.113281 84.050781 262.0625 87.617188 C 262.007813 91.1875 261.832031 94.804688 261.527344 98.472656 C 261.222656 102.140625 260.8125 105.914063 260.304688 109.789063 L 291.128906 109.789063 C 291.738281 103.773438 292.273438 98.191406 292.730469 93.042969 C 293.1875 87.898438 293.59375 83.054688 293.953125 78.519531 C 294.308594 73.984375 294.535156 69.675781 294.636719 65.597656 C 294.738281 61.523438 294.789063 57.496094 294.789063 53.519531 C 294.789063 49.542969 294.6875 45.566406 294.484375 41.59375 C 294.28125 37.617188 294.003906 33.515625 293.648438 29.28125 C 293.289063 25.054688 292.832031 20.59375 292.273438 15.902344 C 291.714844 11.21875 291.078125 6.117188 290.367188 0.613281 L 260.304688 0.613281 C 260.917969 4.183594 261.347656 7.699219 261.601563 11.164063 C 261.855469 14.632813 261.984375 18.070313 261.984375 21.484375 C 261.984375 24.902344 261.855469 28.34375 261.601563 31.804688 C 261.347656 35.273438 260.917969 38.839844 260.304688 42.507813 L 231.621094 42.507813 C 231.109375 38.738281 230.730469 35.121094 230.476563 31.652344 C 230.222656 28.1875 230.09375 24.75 230.09375 21.332031 C 230.09375 17.917969 230.246094 14.503906 230.550781 11.089844 C 230.859375 7.675781 231.214844 4.183594 231.621094 0.613281 L 201.5625 0.613281 C 200.847656 5.8125 200.265625 10.707031 199.804688 15.292969 M 148.699219 22.097656 C 152.921875 22.964844 156.53125 24.339844 159.535156 26.226563 C 162.535156 28.113281 164.875 30.507813 166.554688 33.414063 C 168.230469 36.316406 169.070313 39.757813 169.070313 43.730469 C 169.070313 48.320313 168.332031 51.964844 166.859375 54.664063 C 165.382813 57.367188 163.195313 59.457031 160.296875 60.933594 C 157.398438 62.414063 153.8125 63.355469 149.539063 63.761719 C 145.269531 64.171875 140.332031 64.273438 134.738281 64.070313 L 134.738281 21.101563 C 139.824219 20.898438 144.480469 21.230469 148.699219 22.097656 M 135.503906 109.789063 L 134.738281 88.074219 C 138.503906 88.585938 142.238281 88.761719 145.953125 88.609375 C 149.667969 88.457031 153.253906 87.976563 156.710938 87.15625 C 160.167969 86.34375 163.527344 85.222656 166.78125 83.792969 C 170.035156 82.367188 173.039063 80.710938 175.785156 78.824219 C 178.53125 76.9375 181.050781 74.796875 183.339844 72.402344 C 185.628906 70.007813 187.585938 67.433594 189.214844 64.679688 C 190.839844 61.929688 192.085938 59.023438 192.949219 55.964844 C 193.8125 52.90625 194.246094 49.695313 194.246094 46.332031 C 194.246094 42.152344 193.738281 38.203125 192.722656 34.480469 C 191.703125 30.761719 190.179688 27.269531 188.144531 24.007813 C 186.109375 20.746094 183.589844 17.765625 180.589844 15.0625 C 177.589844 12.363281 174.183594 10.019531 170.367188 8.03125 C 166.554688 6.042969 162.332031 4.414063 157.703125 3.136719 C 153.074219 1.863281 148.066406 1.023438 142.675781 0.613281 C 137.28125 0.207031 131.535156 0.285156 125.433594 0.84375 C 119.328125 1.40625 112.96875 2.5 106.359375 4.132813 L 106.359375 109.789063 Z M 64.714844 42.507813 L 38.773438 42.507813 C 39.382813 38.839844 40.425781 35.757813 41.902344 33.257813 C 43.375 30.761719 45.15625 28.75 47.242188 27.21875 C 49.328125 25.691406 51.566406 24.597656 53.957031 23.933594 C 56.34375 23.269531 58.761719 22.988281 61.203125 23.089844 C 63.648438 23.191406 65.984375 23.625 68.222656 24.390625 C 70.460938 25.15625 72.46875 26.175781 74.25 27.449219 C 76.03125 28.722656 77.453125 30.199219 78.523438 31.882813 C 79.589844 33.5625 80.125 35.375 80.125 37.308594 L 101.179688 37.308594 C 101.078125 33.945313 100.648438 30.839844 99.882813 27.984375 C 99.121094 25.132813 98.027344 22.480469 96.605469 20.03125 C 95.179688 17.585938 93.476563 15.367188 91.492188 13.382813 C 89.507813 11.394531 87.320313 9.636719 84.929688 8.105469 C 82.539063 6.578125 79.996094 5.277344 77.300781 4.207031 C 74.605469 3.136719 71.757813 2.273438 68.757813 1.609375 C 65.753906 0.945313 62.703125 0.539063 59.601563 0.386719 C 56.5 0.230469 53.347656 0.308594 50.140625 0.613281 C 46.9375 0.921875 43.78125 1.480469 40.679688 2.296875 C 37.578125 3.113281 34.550781 4.132813 31.601563 5.355469 C 28.652344 6.578125 25.804688 8.082031 23.058594 9.863281 C 20.3125 11.648438 17.765625 13.664063 15.429688 15.902344 C 13.085938 18.148438 10.953125 20.644531 9.019531 23.394531 C 7.085938 26.148438 5.457031 29.128906 4.136719 32.339844 C 2.8125 35.550781 1.773438 39.046875 1.007813 42.816406 C 0.246094 46.585938 -0.0820313 50.613281 0.015625 54.894531 C 0.015625 59.382813 0.398438 63.558594 1.160156 67.433594 C 1.925781 71.308594 2.992188 74.902344 4.367188 78.210938 C 5.738281 81.527344 7.417969 84.585938 9.402344 87.386719 C 11.386719 90.191406 13.570313 92.738281 15.964844 95.03125 C 18.351563 97.324219 20.921875 99.339844 23.667969 101.070313 C 26.414063 102.804688 29.316406 104.28125 32.363281 105.507813 C 35.417969 106.730469 38.519531 107.699219 41.671875 108.414063 C 44.824219 109.125 48.003906 109.585938 51.210938 109.789063 C 54.414063 109.992188 57.59375 109.992188 60.746094 109.789063 C 63.898438 109.585938 66.976563 109.125 69.976563 108.414063 C 72.976563 107.699219 75.875 106.730469 78.675781 105.507813 C 81.472656 104.28125 84.066406 102.832031 86.457031 101.148438 C 88.847656 99.464844 91.035156 97.554688 93.019531 95.414063 C 95.003906 93.273438 96.679688 90.929688 98.054688 88.382813 C 99.425781 85.835938 100.496094 83.054688 101.257813 80.046875 C 102.019531 77.042969 102.402344 73.804688 102.402344 70.339844 L 80.125 70.339844 C 79.613281 72.988281 78.675781 75.359375 77.300781 77.449219 C 75.929688 79.539063 74.300781 81.269531 72.417969 82.648438 C 70.535156 84.023438 68.453125 85.042969 66.164063 85.707031 C 63.875 86.371094 61.558594 86.675781 59.21875 86.625 C 56.878906 86.574219 54.539063 86.140625 52.203125 85.324219 C 49.859375 84.507813 47.722656 83.234375 45.792969 81.5 C 43.859375 79.769531 42.179688 77.601563 40.757813 75 C 39.332031 72.402344 38.316406 69.371094 37.707031 65.902344 L 64.5625 65.902344 "/>
</g>
</svg>
