<?xml version="1.0" encoding="utf-8"?>
<!-- Generator: Adobe Illustrator 19.0.0, SVG Export Plug-In . SVG Version: 6.00 Build 0)  -->
<svg version="1.1" id="Layer_1" xmlns="http://www.w3.org/2000/svg" xmlns:xlink="http://www.w3.org/1999/xlink" x="0px" y="0px"
	 viewBox="0 0 500 500" style="enable-background:new 0 0 500 500;" xml:space="preserve">
<style type="text/css">
	.st0{fill:#FFFFFF;}
</style>
<g id="XMLID_1_">
	<path id="XMLID_3_" d="M372.7,193.3c0,69.5-56.3,125.8-125.8,125.8c-69.5,0-125.8-56.3-125.8-125.8c0-69.5,56.3-125.8,125.8-125.8
		C316.4,67.5,372.7,123.8,372.7,193.3z"/>
	<path id="XMLID_15_" class="st0" d="M301.9,114c-12.8,0.4-23.9,7.5-32.2,17.2c-9.2,10.7-15.3,23.4-19.7,36.3
		c-7.9-6.5-14-14.8-26.6-18.5c-9.8-2.8-20-1.7-29.5,5.4c-4.5,3.3-7.6,8.4-9,13.1c-3.8,12.3,4,23.3,7.5,27.3l7.7,8.3
		c1.6,1.6,5.4,5.9,3.6,11.9c-2,6.6-10,10.9-18.2,8.4c-3.6-1.1-8.9-3.8-7.7-7.7c0.5-1.6,1.6-2.7,2.2-4.1c0.5-1.2,0.8-2,1-2.6
		c1.5-4.9-0.5-11.2-5.8-12.8c-4.9-1.5-9.9-0.3-11.8,6c-2.2,7.1,1.2,20,19.5,25.7c21.4,6.6,39.5-5.1,42-20.2
		c1.6-9.5-2.7-16.6-10.5-25.7L208,175c-3.9-3.9-5.2-10.5-1.2-15.6c3.4-4.3,8.2-6.1,16.1-4c11.6,3.1,16.7,11.1,25.3,17.6
		c-3.5,11.6-5.9,23.3-8,33.8l-1.3,7.8c-6.1,32.2-10.8,49.9-23,60c-2.5,1.7-6,4.4-11.2,4.5c-2.8,0.1-3.7-1.8-3.7-2.7
		c-0.1-1.9,1.6-2.8,2.7-3.7c1.6-0.9,4.1-2.4,3.9-7.1c-0.2-5.6-4.8-10.4-11.5-10.2c-5,0.2-12.6,4.9-12.3,13.5
		c0.3,8.9,8.6,15.6,21.1,15.1c6.7-0.2,21.6-2.9,36.3-20.4c17.1-20,21.9-43,25.5-59.8l4-22.2c2.2,0.3,4.6,0.4,7.2,0.5
		c21.3,0.5,32-10.6,32.1-18.6c0.1-4.9-3.2-9.7-7.8-9.5c-3.3,0.1-7.4,2.3-8.4,6.9c-1,4.5,6.8,8.5,0.7,12.5c-4.3,2.8-12,4.7-22.9,3.2
		l2-10.9c4-20.7,9-46.2,27.9-46.8c1.4-0.1,6.4,0.1,6.5,3.4c0,1.1-0.2,1.4-1.5,3.9c-1.3,2-1.8,3.7-1.8,5.6c0.2,5.3,4.2,8.8,10,8.6
		c7.8-0.3,10-7.8,9.9-11.7C324.4,119.4,314.7,113.6,301.9,114z"/>
	<path id="XMLID_18_" d="M293.6,371.5c12.7,0,21.2,9.2,21.2,21.9c0,12-8.7,21.9-21.2,21.9c-12.6,0-21.3-9.9-21.3-21.9
		C272.3,380.7,280.9,371.5,293.6,371.5z M293.6,409.1c9,0,13-8.2,13-15.7c0-7.9-4.8-15.7-13-15.7c-8.3,0-13.1,7.7-13.1,15.7
		C280.5,400.9,284.5,409.1,293.6,409.1z"/>
	<path id="XMLID_19_" d="M271.3,375.4v-2.9h-11.1v-4c0-5.7,0.8-9.9,7.5-9.9l0.4,0l0,0c1.8,0.1,3.4-1.4,3.5-3.2l0.1-2.5
		c-1.6-0.2-3.2-0.5-5.2-0.5c-11.4,0-14,6.6-14,16.8v3.3h-9.8v3.2c0.2,1.7,1.7,3,3.4,3l0,0h6.4v35.6h4.2l0,0c1.8,0,3.2-1.3,3.4-3
		v-32.6h7.7C269.7,378.7,271.2,377.2,271.3,375.4z"/>
	<path id="XMLID_20_" d="M168.6,372.5L168.6,372.5c-1.7,0-3.2,1.1-3.9,2.6l-10.6,32h-0.2l-10.4-31.9c-0.7-1.5-2.3-2.6-3.9-2.6l0,0
		h-5.4l14.2,39c0.5,1.4,1.5,3.5,1.5,4.4c0,0.8-2.3,10.3-9.2,10.3l-0.5,0c-1.8-0.1-3.1,1.1-3.4,3l-0.2,2.7c1.4,0.2,2.8,0.6,5.3,0.6
		c10.2,0,13.2-9.3,16.1-17.3l15.4-42.7L168.6,372.5L168.6,372.5z"/>
	<path id="XMLID_21_" d="M119.6,381c-6.4-3.3-13.3-5.5-13.5-12c0-7,6.4-8.8,11.3-8.8l0.1,0c2.1,0,3.9,0.2,5.5,0.6l0,0
		c1.8,0.1,3.2-1.3,3.5-3l0.1-2.5c-3.2-0.8-6.6-1.2-9.5-1.2c-10.7,0.1-18.7,5.5-18.7,15.7c0,9,6.1,12.5,12.6,15.6
		c6.4,3.1,13.4,5.6,13.5,13c0,7.7-7.5,10.6-12.7,10.6c-3,0-6.3-0.8-9-1.6c-1.7-0.3-3.1,1.2-3.4,3.3l-0.2,2.3
		c3.8,1.2,7.7,2.3,11.6,2.3h0h0c12-0.1,21.3-4.9,21.4-17.3C132.2,388.3,126.1,384.3,119.6,381z"/>
	<path id="XMLID_22_" d="M236.2,414.3L236.2,414.3c1.7,0,3.1-1.2,3.4-2.7v-24.1c0-9.1-3.9-16-14.5-16c-3.8,0-10.1,2.1-12.9,8.1
		c-2.2-5.7-7.1-8.1-11.9-8.1c-6.2,0-10.3,2.2-13.3,7.1h-0.2V376c0-1.9-1.6-3.5-3.5-3.5l0,0h-3.7v41.8h4.2l0,0c1.9,0,3.5-1.6,3.5-3.5
		l0-0.1v-17.5c0-7.8,3.1-15.5,11-15.5c6.2,0,7.5,6.5,7.5,11.6v24.9h4.2l0,0c1.8,0,3.3-1.4,3.5-3.2v-17.9c0-7.8,3.1-15.5,11-15.5
		c6.2,0,7.5,6.5,7.5,11.6v24.9L236.2,414.3L236.2,414.3z"/>
	<path id="XMLID_23_" d="M355.3,414.3L355.3,414.3c1.9,0,3.4-1.5,3.5-3.3v-21.5c0-11.2-4.8-18-15.7-18c-5.8,0-11.4,2.9-13.7,7.6
		h-0.2V376l0,0c0-1.9-1.6-3.5-3.5-3.5l0,0h-3.9v41.8h4.2l0,0c1.8,0,3.3-1.4,3.5-3.2V395c0-10.2,3.9-17.2,12.7-17.2
		c6.7,0.4,8.9,5.2,8.9,14.9v21.6L355.3,414.3L355.3,414.3z"/>
	<path id="XMLID_24_" d="M396.8,372.5L396.8,372.5c-1.7,0-3.2,1.1-3.9,2.6l-10.6,32h-0.2l-10.4-31.9c-0.7-1.5-2.3-2.6-3.9-2.6l0,0
		h-5.4l14.2,39c0.5,1.4,1.5,3.5,1.5,4.4c0,0.8-2.3,10.3-9.2,10.3l-0.5,0c-1.8-0.1-3.1,1.1-3.4,3l-0.2,2.7c1.4,0.2,2.8,0.6,5.2,0.6
		c10.2,0,13.2-9.3,16.1-17.3l15.4-42.7L396.8,372.5L396.8,372.5z"/>
</g>
</svg>
